<svg width="55" height="49" viewBox="0 0 55 49" fill="none" xmlns="http://www.w3.org/2000/svg">
<rect x="0.316895" y="0.305176" width="54" height="48" rx="10" fill="white"/>
<path d="M27.8169 35.2071C27.6589 35.2071 27.4999 35.1691 27.3539 35.0941C25.7216 34.2427 23.9079 33.7981 22.0669 33.7981C20.2259 33.7981 18.4122 34.2427 16.7799 35.0941C16.6274 35.1731 16.4571 35.2116 16.2854 35.2059C16.1137 35.2001 15.9463 35.1503 15.7994 35.0613C15.6525 34.9722 15.531 34.8468 15.4465 34.6973C15.362 34.5477 15.3173 34.3789 15.3169 34.2071V15.2071C15.3169 15.0458 15.3559 14.8869 15.4306 14.7439C15.5053 14.601 15.6135 14.4782 15.7459 14.3861C19.5269 11.7551 24.6069 11.7551 28.3889 14.3861C28.6569 14.5731 28.8169 14.8801 28.8169 15.2071V34.2071C28.8169 34.4723 28.7115 34.7267 28.524 34.9142C28.3365 35.1017 28.0821 35.2071 27.8169 35.2071ZM22.0669 31.7981C23.6769 31.7981 25.2879 32.0871 26.8169 32.6651V15.7471C25.3863 14.874 23.7428 14.4121 22.0669 14.4121C20.391 14.4121 18.7475 14.874 17.3169 15.7471V32.6651C18.8349 32.0916 20.4442 31.7979 22.0669 31.7981Z" fill="#F27851"/>
<path d="M39.3169 35.2071C39.1589 35.2071 38.9999 35.1691 38.8539 35.0941C37.2216 34.2427 35.4079 33.7981 33.5669 33.7981C31.7259 33.7981 29.9122 34.2427 28.2799 35.0941C28.1274 35.1731 27.9571 35.2116 27.7854 35.2059C27.6137 35.2001 27.4463 35.1503 27.2994 35.0613C27.1525 34.9722 27.031 34.8468 26.9465 34.6973C26.862 34.5477 26.8173 34.3789 26.8169 34.2071V15.2071C26.8169 15.0458 26.8559 14.8869 26.9306 14.7439C27.0053 14.601 27.1135 14.4782 27.2459 14.3861C31.0269 11.7551 36.1069 11.7551 39.8889 14.3861C40.1569 14.5731 40.3169 14.8801 40.3169 15.2071V34.2071C40.3169 34.4723 40.2115 34.7267 40.024 34.9142C39.8365 35.1017 39.5821 35.2071 39.3169 35.2071ZM33.5669 31.7981C35.1769 31.7981 36.7879 32.0871 38.3169 32.6651V15.7471C36.8863 14.874 35.2428 14.4121 33.5669 14.4121C31.891 14.4121 30.2475 14.874 28.8169 15.7471V32.6651C30.3349 32.0916 31.9442 31.7979 33.5669 31.7981Z" fill="#F27851"/>
</svg>
