<svg width="22" height="20" viewBox="0 0 22 20" fill="none" xmlns="http://www.w3.org/2000/svg">
<path d="M10.645 18.9107L10.6384 18.9071L10.6158 18.8949C10.5965 18.8844 10.5689 18.8693 10.5336 18.8496C10.4629 18.8101 10.3612 18.7524 10.233 18.6769C9.9765 18.5261 9.61317 18.3039 9.17855 18.015C8.31074 17.4381 7.15122 16.5901 5.9886 15.5063C3.68781 13.3615 1.25 10.1751 1.25 6.25C1.25 3.32194 3.7136 1 6.6875 1C8.43638 1 10.0023 1.79909 11 3.0516C11.9977 1.79909 13.5636 1 15.3125 1C18.2864 1 20.75 3.32194 20.75 6.25C20.75 10.1751 18.3122 13.3615 16.0114 15.5063C14.8488 16.5901 13.6893 17.4381 12.8215 18.015C12.3868 18.3039 12.0235 18.5261 11.767 18.6769C11.6388 18.7524 11.5371 18.8101 11.4664 18.8496C11.4311 18.8693 11.4035 18.8844 11.3842 18.8949L11.3616 18.9071L11.355 18.9107L11.3523 18.9121C11.1323 19.0289 10.8677 19.0289 10.6477 18.9121L10.645 18.9107Z" stroke="#B6B6B6" stroke-linejoin="round"/>
</svg>
