<svg width="20" height="19" viewBox="0 0 20 19" fill="none" xmlns="http://www.w3.org/2000/svg">
<path d="M9.64497 18.4107L9.63844 18.4072L9.61579 18.3949C9.5965 18.3844 9.56891 18.3693 9.53358 18.3496C9.46292 18.3101 9.36124 18.2524 9.23296 18.1769C8.9765 18.0261 8.61317 17.8039 8.17855 17.515C7.31074 16.9381 6.15122 16.0901 4.9886 15.0063C2.68781 12.8615 0.25 9.6751 0.25 5.75C0.25 2.82194 2.7136 0.5 5.6875 0.5C7.43638 0.5 9.00232 1.29909 10 2.5516C10.9977 1.29909 12.5636 0.5 14.3125 0.5C17.2864 0.5 19.75 2.82194 19.75 5.75C19.75 9.6751 17.3122 12.8615 15.0114 15.0063C13.8488 16.0901 12.6893 16.9381 11.8215 17.515C11.3868 17.8039 11.0235 18.0261 10.767 18.1769C10.6388 18.2524 10.5371 18.3101 10.4664 18.3496C10.4311 18.3693 10.4035 18.3844 10.3842 18.3949L10.3616 18.4072L10.355 18.4107L10.3523 18.4121C10.1323 18.5289 9.86769 18.5289 9.64773 18.4121L9.64497 18.4107Z" fill="#F34040"/>
</svg>
