<svg width="55" height="49" viewBox="0 0 55 49" fill="none" xmlns="http://www.w3.org/2000/svg">
<rect x="0.316895" y="0.305176" width="54" height="48" rx="10" fill="white"/>
<g clip-path="url(#clip0_25_2076)">
<path d="M19.6835 25.4951H16.4547C16.3825 25.4951 16.3169 25.5542 16.3169 25.6329V32.1364C16.3169 32.2118 16.3825 32.2742 16.4547 32.2742H19.6802C19.7589 32.2742 19.818 32.2086 19.818 32.1364V25.6329C19.8188 25.6149 19.8159 25.5969 19.8095 25.58C19.803 25.5632 19.7932 25.5478 19.7806 25.5349C19.768 25.5219 19.7529 25.5117 19.7362 25.5049C19.7194 25.4981 19.7015 25.4947 19.6835 25.4951ZM18.4333 31.6639C18.1216 31.6639 17.8656 31.4079 17.8656 31.0962C17.8656 30.7812 18.1216 30.5253 18.4333 30.5253C18.7483 30.5253 19.0042 30.7812 19.0042 31.0962C19.0042 31.4079 18.7483 31.6639 18.4333 31.6639ZM36.4474 28.1497L31.2794 29.8526C31.0792 30.0364 30.8167 30.1414 30.5477 30.1414H25.1664C25.1216 30.1414 25.0786 30.1236 25.0469 30.0919C25.0152 30.0602 24.9974 30.0172 24.9974 29.9724C24.9974 29.9276 25.0152 29.8846 25.0469 29.8529C25.0786 29.8212 25.1216 29.8034 25.1664 29.8034H30.5477C30.7347 29.8034 30.9152 29.7312 31.053 29.6065C31.0628 29.5934 31.076 29.5836 31.0891 29.5704C31.2171 29.4359 31.2892 29.2522 31.2892 29.0586C31.2892 28.6484 30.9578 28.3137 30.5477 28.3137H26.8333C26.7349 28.3137 26.6496 28.2776 26.5806 28.2022C24.9794 26.3843 22.046 26.1087 20.4381 26.1087C20.3397 26.1087 20.2446 26.112 20.156 26.112V31.4079L25.0942 33.0912C26.2624 33.4882 27.5125 33.5933 28.743 33.3734C29.5256 33.237 30.2812 32.9756 30.9808 32.599L36.9724 29.344C37.1856 29.2292 37.3136 29.0093 37.3136 28.7698C37.3136 28.6714 37.2939 28.5795 37.248 28.4909C37.1805 28.345 37.0613 28.2292 36.9133 28.1662C36.7654 28.1032 36.5994 28.0973 36.4474 28.1497ZM25.0417 16.9967L25.0188 18.5947C25.0188 18.6111 25.0286 18.6209 25.0417 18.6209H37.2972C37.3071 18.6209 37.3169 18.6111 37.3169 18.5947V17.0164L25.0417 16.9967ZM30.2556 26.2137V18.9523H25.6225V26.0431C25.6225 26.1383 25.698 26.217 25.7931 26.217H30.2556V26.2137ZM36.7164 26.0431V18.9523H32.08V26.2137H36.5458C36.6377 26.2137 36.7164 26.135 36.7164 26.0431ZM30.5903 18.9523H31.7486V26.2137H30.5903V18.9523ZM29.268 16.6062L30.0391 16.8622H32.1621L32.9364 16.6062C33.1429 16.5386 33.3285 16.4188 33.4751 16.2584C33.6217 16.098 33.7243 15.9025 33.7731 15.6908C33.8781 15.2609 33.7502 14.8147 33.4352 14.4964C33.1956 14.2536 32.8774 14.1223 32.5394 14.1223C32.4377 14.1223 32.3392 14.1354 32.2408 14.1584C32.0291 14.2073 31.8336 14.31 31.6732 14.4565C31.5128 14.6031 31.393 14.7886 31.3253 14.9951L31.1055 15.6612L30.8824 14.9951C30.7347 14.5718 30.3935 14.2568 29.9603 14.1584C29.749 14.1068 29.5279 14.1108 29.3186 14.17C29.1093 14.2292 28.9189 14.3417 28.766 14.4964C28.451 14.8114 28.323 15.2576 28.4247 15.6908C28.4755 15.9026 28.5796 16.098 28.7272 16.2582C28.8748 16.4185 29.061 16.5383 29.268 16.6062ZM32.021 15.2281C32.08 15.0509 32.2244 14.9197 32.4049 14.877C32.4475 14.8672 32.4902 14.8606 32.5296 14.8606C32.6706 14.8606 32.8052 14.9164 32.9036 15.0181C33.0349 15.1461 33.0906 15.3364 33.048 15.5168C33.0021 15.7006 32.8708 15.845 32.6936 15.904L31.6764 16.242L32.021 15.2281ZM29.2877 15.0214C29.3894 14.9197 29.5239 14.8639 29.665 14.8639C29.7077 14.8639 29.7503 14.8704 29.793 14.8803C29.9735 14.9229 30.1178 15.0542 30.1769 15.2314L30.5149 16.2486L29.4977 15.9106C29.3205 15.8515 29.1892 15.7072 29.1433 15.5267C29.1039 15.3397 29.1564 15.1526 29.2877 15.0214Z" fill="#926CFF"/>
</g>
<defs>
<clipPath id="clip0_25_2076">
<rect width="21" height="21" fill="white" transform="translate(16.3169 13.3052)"/>
</clipPath>
</defs>
</svg>
