<svg width="96" height="103" viewBox="0 0 96 103" fill="none" xmlns="http://www.w3.org/2000/svg">
<path opacity="0.21" fill-rule="evenodd" clip-rule="evenodd" d="M0.42041 51.2526V79.2869C0.42041 91.9895 10.7178 102.287 23.4204 102.287H47.8318H72.2431C84.9457 102.287 95.2431 91.9895 95.2431 79.2869V51.2526V23.2183C95.2431 10.5157 84.9457 0.218262 72.2431 0.218262H47.8318H23.4204C10.7179 0.218262 0.42041 10.5157 0.42041 23.2183V51.2526Z" fill="#FEC53D"/>
<path fill-rule="evenodd" clip-rule="evenodd" d="M24.1265 41.5837L44.5141 54.254C44.7337 54.3904 44.9639 54.489 45.1982 54.5515V79.125L25.5805 66.628C24.6793 66.0539 24.1265 65.0103 24.1265 63.883V41.5837ZM71.5377 41.2466V63.8828C71.5377 65.01 70.9849 66.0536 70.0837 66.6277L50.466 79.1247V54.336C50.5138 54.3103 50.5612 54.2829 50.6081 54.2537L71.5377 41.2466Z" fill="#FEC53D"/>
<path opacity="0.499209" fill-rule="evenodd" clip-rule="evenodd" d="M24.7666 35.4342C25.0156 35.0957 25.3299 34.8096 25.6964 34.5996L46.4389 22.7074C47.3096 22.2082 48.3541 22.2082 49.2249 22.7074L69.9673 34.5996C70.2498 34.7615 70.5013 34.9686 70.7158 35.2101L47.9739 49.3435C47.8244 49.4364 47.6865 49.5427 47.5609 49.6602C47.4352 49.5427 47.2974 49.4364 47.1478 49.3435L24.7666 35.4342Z" fill="#FEC53D"/>
</svg>
