<svg width="94" height="102" viewBox="0 0 94 102" fill="none" xmlns="http://www.w3.org/2000/svg">
<path opacity="0.21" fill-rule="evenodd" clip-rule="evenodd" d="M0 51V79C0 91.7025 10.2974 102 23 102H47H71C83.7025 102 94 91.7025 94 79V51V23C94 10.2975 83.7026 0 71 0H47H23C10.2975 0 0 10.2975 0 23V51Z" fill="#8280FF"/>
<path opacity="0.587821" fill-rule="evenodd" clip-rule="evenodd" d="M32.3779 39.6663C32.3779 44.6737 36.1188 48.7329 40.7335 48.7329C45.3481 48.7329 49.089 44.6737 49.089 39.6663C49.089 34.6589 45.3481 30.5996 40.7335 30.5996C36.1188 30.5996 32.3779 34.6589 32.3779 39.6663ZM53.2671 48.7331C53.2671 52.4886 56.0728 55.5331 59.5338 55.5331C62.9947 55.5331 65.8004 52.4886 65.8004 48.7331C65.8004 44.9775 62.9947 41.9331 59.5338 41.9331C56.0728 41.9331 53.2671 44.9775 53.2671 48.7331Z" fill="#8280FF"/>
<path fill-rule="evenodd" clip-rule="evenodd" d="M40.6983 53.2656C30.8358 53.2656 22.7441 58.7657 21.9345 69.5838C21.8904 70.1731 22.9289 71.399 23.4528 71.399H57.9595C59.5288 71.399 59.5531 70.0287 59.5288 69.5856C58.9166 58.4635 50.6996 53.2656 40.6983 53.2656ZM62.8749 71.3991V71.3994H70.9302C72.0635 71.3994 72.0812 70.3717 72.0635 70.0394C71.6263 61.7888 65.8159 57.885 58.6998 57.8007C61.3215 61.5888 62.8749 66.2971 62.8749 71.3991Z" fill="#8280FF"/>
</svg>
