<svg width="14" height="14" viewBox="0 0 14 14" fill="none" xmlns="http://www.w3.org/2000/svg">
<path d="M1.81473 13.6667C1.40733 13.6667 1.05844 13.5218 0.768067 13.2319C0.47819 12.9415 0.333252 12.5926 0.333252 12.1852V1.81486C0.333252 1.40745 0.47819 1.05856 0.768067 0.768189C1.05844 0.478312 1.40733 0.333374 1.81473 0.333374H12.1851C12.5925 0.333374 12.9414 0.478312 13.2318 0.768189C13.5216 1.05856 13.6666 1.40745 13.6666 1.81486V12.1852C13.6666 12.5926 13.5216 12.9415 13.2318 13.2319C12.9414 13.5218 12.5925 13.6667 12.1851 13.6667H1.81473ZM5.96288 9.79634C6.06165 9.79634 6.15424 9.78103 6.24066 9.75041C6.32708 9.7193 6.40733 9.66671 6.4814 9.59263L10.6851 5.38893C10.8209 5.25313 10.8888 5.08646 10.8888 4.88893C10.8888 4.6914 10.8147 4.51856 10.6666 4.37041C10.5308 4.23461 10.3579 4.16671 10.1481 4.16671C9.93819 4.16671 9.76535 4.23461 9.62955 4.37041L5.96288 8.03708L4.35177 6.42597C4.21597 6.29016 4.0493 6.22226 3.85177 6.22226C3.65424 6.22226 3.4814 6.29634 3.33325 6.44448C3.19745 6.58029 3.12955 6.75313 3.12955 6.963C3.12955 7.17288 3.19745 7.34572 3.33325 7.48152L5.44436 9.59263C5.51844 9.66671 5.59868 9.7193 5.6851 9.75041C5.77152 9.78103 5.86412 9.79634 5.96288 9.79634Z" fill="url(#paint0_linear_163_74)"/>
<defs>
<linearGradient id="paint0_linear_163_74" x1="6.99992" y1="0.333374" x2="6.99992" y2="13.6667" gradientUnits="userSpaceOnUse">
<stop stop-color="#F25D07"/>
<stop offset="1" stop-color="#FFAC7C"/>
</linearGradient>
</defs>
</svg>
